<?xml version="1.0" encoding="UTF-8" standalone="no"?>
<svg
   xmlns:dc="http://purl.org/dc/elements/1.1/"
   xmlns:cc="http://creativecommons.org/ns#"
   xmlns:rdf="http://www.w3.org/1999/02/22-rdf-syntax-ns#"
   xmlns:svg="http://www.w3.org/2000/svg"
   xmlns="http://www.w3.org/2000/svg"
   xmlns:sodipodi="http://sodipodi.sourceforge.net/DTD/sodipodi-0.dtd"
   xmlns:inkscape="http://www.inkscape.org/namespaces/inkscape"
   width="134mm"
   height="131mm"
   viewBox="0 0 134 131"
   version="1.1"
   id="svg8"
   inkscape:version="1.0.2 (1.0.2+r75+1)"
   sodipodi:docname="github.svg">
  <defs
     id="defs2" />
  <sodipodi:namedview
     id="base"
     pagecolor="#ffffff"
     bordercolor="#666666"
     borderopacity="1.0"
     inkscape:pageopacity="0.0"
     inkscape:pageshadow="2"
     inkscape:zoom="0.35"
     inkscape:cx="400"
     inkscape:cy="560"
     inkscape:document-units="mm"
     inkscape:current-layer="layer1"
     inkscape:document-rotation="0"
     showgrid="false"
     inkscape:window-width="1867"
     inkscape:window-height="1025"
     inkscape:window-x="53"
     inkscape:window-y="27"
     inkscape:window-maximized="1" />
  <metadata
     id="metadata5">
    <rdf:RDF>
      <cc:Work
         rdf:about="">
        <dc:format>image/svg+xml</dc:format>
        <dc:type
           rdf:resource="http://purl.org/dc/dcmitype/StillImage" />
        <dc:title></dc:title>
      </cc:Work>
    </rdf:RDF>
  </metadata>
  <g
     inkscape:label="Layer 1"
     inkscape:groupmode="layer"
     id="layer1">
    <path
       fill="currentColor"
       d="m 45.662942,105.13952 c 0,0.52916 -0.608542,0.9525 -1.375833,0.9525 -0.873125,0.0794 -1.481667,-0.34396 -1.481667,-0.9525 0,-0.52917 0.608542,-0.9525 1.375833,-0.9525 0.79375,-0.0794 1.481667,0.34395 1.481667,0.9525 z M 37.4344,103.94889 c -0.185208,0.52917 0.343959,1.13771 1.137709,1.29646 0.687916,0.26458 1.481666,0 1.640416,-0.52917 0.15875,-0.52916 -0.343958,-1.13771 -1.137708,-1.37583 -0.687917,-0.18521 -1.455208,0.0794 -1.640417,0.60854 z m 11.694584,-0.44979 c -0.767292,0.18521 -1.296459,0.68792 -1.217084,1.29646 0.07937,0.52916 0.767292,0.87312 1.561042,0.68791 0.767292,-0.1852 1.296458,-0.68791 1.217083,-1.21708 -0.07937,-0.50271 -0.79375,-0.84667 -1.561041,-0.76729 z M 66.538567,2.1107696 c -36.697708,0 -64.7699998,27.8606204 -64.7699998,64.5583304 0,29.34229 18.4679168,54.45125 44.8468748,63.28833 3.386667,0.60854 4.577292,-1.48166 4.577292,-3.20146 0,-1.64041 -0.07937,-10.68916 -0.07937,-16.24541 0,0 -18.520834,3.96875 -22.410209,-7.88459 0,0 -3.01625,-7.69937 -7.355416,-9.68375 0,0 -6.058959,-4.15395 0.423333,-4.07458 0,0 6.588125,0.52917 10.212917,6.82625 5.794375,10.21292 15.504583,7.27604 19.288125,5.52979 0.608541,-4.23333 2.328333,-7.17021 4.233333,-8.91646 -14.790208,-1.64041 -29.712708,-3.78354 -29.712708,-29.23645 0,-7.27605 2.010833,-10.9273 6.244166,-15.58396 -0.687916,-1.71979 -2.936875,-8.81063 0.687917,-17.96521 5.529792,-1.71979 18.25625,7.14375 18.25625,7.14375 5.291665,-1.48167 10.980205,-2.24896 16.615835,-2.24896 5.63562,0 11.32416,0.76729 16.61583,2.24896 0,0 12.72646,-8.89 18.256263,-7.14375 3.62479,9.18104 1.37583,16.24542 0.68791,17.96521 4.23334,4.68312 6.82625,8.33437 6.82625,15.58396 0,25.53229 -15.583963,27.56958 -30.374173,29.23645 2.43417,2.09021 4.49792,6.05896 4.49792,12.27667 0,8.91646 -0.0794,19.94958 -0.0794,22.11917 0,1.71979 1.21708,3.81 4.57729,3.20146 26.458333,-8.78417 44.397083,-33.89313 44.397083,-63.23542 0,-36.69771 -29.76562,-64.5583304 -66.463333,-64.5583304 z M 27.486067,93.36556 c -0.343958,0.26458 -0.264583,0.87312 0.185208,1.37583 0.423334,0.42333 1.031875,0.60854 1.375834,0.26458 0.343958,-0.26458 0.264583,-0.87312 -0.185209,-1.37583 -0.423333,-0.42333 -1.031875,-0.60854 -1.375833,-0.26458 z m -2.8575,-2.14313 c -0.185208,0.34396 0.07937,0.76729 0.608542,1.03188 0.423333,0.26458 0.9525,0.18521 1.137708,-0.18521 0.185208,-0.34396 -0.07937,-0.76729 -0.608542,-1.03188 -0.529166,-0.15875 -0.9525,-0.0794 -1.137708,0.18521 z m 8.5725,9.41917 c -0.423333,0.34396 -0.264583,1.13771 0.343958,1.64042 0.608542,0.60854 1.375834,0.68791 1.719792,0.26458 0.343958,-0.34396 0.185208,-1.13771 -0.343958,-1.64042 -0.582084,-0.60854 -1.375834,-0.68791 -1.719792,-0.26458 z m -3.01625,-3.88938 c -0.423333,0.26459 -0.423333,0.9525 0,1.56105 0.423333,0.60854 1.137708,0.87312 1.481667,0.60854 0.423333,-0.34396 0.423333,-1.03188 0,-1.64042 -0.370417,-0.60854 -1.058334,-0.87312 -1.481667,-0.52917 z"
       id="path833"
       style="stroke-width:0.264583;fill:#ffffff;fill-opacity:1" />
  </g>
</svg>
