<?xml version="1.0" encoding="UTF-8" standalone="no"?>
<svg
   xmlns:dc="http://purl.org/dc/elements/1.1/"
   xmlns:cc="http://creativecommons.org/ns#"
   xmlns:rdf="http://www.w3.org/1999/02/22-rdf-syntax-ns#"
   xmlns:svg="http://www.w3.org/2000/svg"
   xmlns="http://www.w3.org/2000/svg"
   xmlns:sodipodi="http://sodipodi.sourceforge.net/DTD/sodipodi-0.dtd"
   xmlns:inkscape="http://www.inkscape.org/namespaces/inkscape"
   width="122mm"
   height="122mm"
   viewBox="0 0 122 122"
   version="1.1"
   id="svg888"
   inkscape:version="1.0.2 (1.0.2+r75+1)"
   sodipodi:docname="check.svg">
  <defs
     id="defs882" />
  <sodipodi:namedview
     id="base"
     pagecolor="#ffffff"
     bordercolor="#666666"
     borderopacity="1.0"
     inkscape:pageopacity="0.0"
     inkscape:pageshadow="2"
     inkscape:zoom="0.35"
     inkscape:cx="400"
     inkscape:cy="560"
     inkscape:document-units="mm"
     inkscape:current-layer="layer1"
     inkscape:document-rotation="0"
     showgrid="false"
     inkscape:window-width="1439"
     inkscape:window-height="1023"
     inkscape:window-x="153"
     inkscape:window-y="27"
     inkscape:window-maximized="0" />
  <metadata
     id="metadata885">
    <rdf:RDF>
      <cc:Work
         rdf:about="">
        <dc:format>image/svg+xml</dc:format>
        <dc:type
           rdf:resource="http://purl.org/dc/dcmitype/StillImage" />
        <dc:title></dc:title>
      </cc:Work>
    </rdf:RDF>
  </metadata>
  <g
     inkscape:label="Layer 1"
     inkscape:groupmode="layer"
     id="layer1">
    <path
       fill="currentColor"
       d="M 107.78464,120.64586 H 14.651313 c -7.0141041,0 -12.7000001,-5.6859 -12.7000001,-12.7 V 14.812524 c 0,-7.0141055 5.685896,-12.7000005 12.7000001,-12.7000005 h 93.133327 c 7.01411,0 12.7,5.685895 12.7,12.7000005 v 93.133336 c 0,7.0141 -5.68589,12.7 -12.7,12.7 z M 53.628142,94.70108 102.31147,46.01775 c 1.65312,-1.65312 1.65312,-4.33361 0,-5.98673 l -5.986721,-5.98673 c -1.65312,-1.65311 -4.33361,-1.65338 -5.98699,0 L 50.634646,73.74714 32.098203,55.21069 c -1.653117,-1.65311 -4.333611,-1.65311 -5.986992,0 l -5.986727,5.98673 c -1.653117,1.65312 -1.653117,4.33361 0,5.98673 L 47.64115,94.70082 c 1.653382,1.65364 4.333611,1.65364 5.986992,2.6e-4 z"
       id="path1451"
       style="stroke-width:0.264583;fill:#eba534;fill-opacity:1" />
  </g>
</svg>
