<?xml version="1.0" encoding="UTF-8" standalone="no"?>
<svg
   xmlns:dc="http://purl.org/dc/elements/1.1/"
   xmlns:cc="http://creativecommons.org/ns#"
   xmlns:rdf="http://www.w3.org/1999/02/22-rdf-syntax-ns#"
   xmlns:svg="http://www.w3.org/2000/svg"
   xmlns="http://www.w3.org/2000/svg"
   xmlns:sodipodi="http://sodipodi.sourceforge.net/DTD/sodipodi-0.dtd"
   xmlns:inkscape="http://www.inkscape.org/namespaces/inkscape"
   width="7.25in"
   height="4.5in"
   viewBox="0 0 184.15 114.3"
   version="1.1"
   id="svg8"
   inkscape:version="1.0.2 (1.0.2+r75+1)"
   sodipodi:docname="gibson.svg">
  <defs
     id="defs2" />
  <sodipodi:namedview
     id="base"
     pagecolor="#ffffff"
     bordercolor="#666666"
     borderopacity="1.0"
     inkscape:pageopacity="0.0"
     inkscape:pageshadow="2"
     inkscape:zoom="0.35"
     inkscape:cx="887.14286"
     inkscape:cy="560"
     inkscape:document-units="mm"
     inkscape:current-layer="layer1"
     inkscape:document-rotation="0"
     showgrid="false"
     inkscape:window-width="1867"
     inkscape:window-height="1025"
     inkscape:window-x="53"
     inkscape:window-y="27"
     inkscape:window-maximized="1"
     units="in"
     height="9.5in" />
  <metadata
     id="metadata5">
    <rdf:RDF>
      <cc:Work
         rdf:about="">
        <dc:format>image/svg+xml</dc:format>
        <dc:type
           rdf:resource="http://purl.org/dc/dcmitype/StillImage" />
        <dc:title></dc:title>
      </cc:Work>
    </rdf:RDF>
  </metadata>
  <g
     inkscape:label="Layer 1"
     inkscape:groupmode="layer"
     id="layer1">
    <path
       style="fill:#f9f9f9;stroke-width:0.212246"
       d="m 29.840874,98.829598 c -8.3e-4,-8.4307 -0.0803,-13.61841 -0.21655,-14.11758 -0.11846,-0.43404 -0.51596,-1.04654 -0.88333,-1.36112 -1.05648,-0.90466 -1.94658,-0.68271 -5.06182,1.26224 -3.92442,2.45015 -5.20106,3.0073 -7.10362,3.10016 -2.52021,0.12301 -3.95095,-0.76208 -4.97895,-3.0801 -0.35208,-0.79391 -0.37816,-2.50212 -0.43193,-28.297445 -0.0571,-27.394418 -0.0563,-27.45539 0.38457,-28.797954 0.24298,-0.739974 0.72665,-1.800413 1.07482,-2.35653 0.7632,-1.219041 2.71009,-3.092183 4.03549,-3.882629 1.63109,-0.972762 13.02806,-4.635865 14.4118,-4.632102 1.73948,0.0049 4.32904,1.932523 5.27932,3.930194 0.73986,1.555335 0.85502,3.069909 0.71236,9.36913 l -0.13444,5.936631 -3.38548,1.19642 c -1.86201,0.65802 -3.45648,1.19514 -3.54327,1.19358 -0.0868,-10e-4 -0.15815,-2.628365 -0.15858,-5.837355 -6.6e-4,-5.409091 -0.0307,-5.884511 -0.41149,-6.51999 -0.91389,-1.525292 -2.30888,-1.689254 -5.42523,-0.637664 -2.73785,0.923874 -3.59677,1.617478 -4.62523,3.735 l -0.79351,1.633798 -0.0624,22.921111 c -0.0343,12.606615 -0.003,23.346265 0.0706,23.865895 0.0903,0.64109 0.3322,1.14748 0.75267,1.57537 0.59155,0.60199 0.68857,0.62685 2.13855,0.54795 1.92192,-0.10458 3.21045,-0.73898 4.5655,-2.24779 1.33423,-1.48563 1.98,-2.65291 2.72312,-4.92226 1.0634,-3.24744 1.30963,-5.60549 1.43039,-13.698175 0.06,-4.01978 0.17039,-7.40969 0.24536,-7.53314 0.14994,-0.24688 6.19548,-2.60824 6.67762,-2.60824 0.25768,0 0.27996,1.27013 0.15689,8.94323 -0.15428,9.618195 -0.0742,10.710105 0.85066,11.594265 1.58634,1.5166 3.99287,0.63936 5.28117,-1.92511 1.24438,-2.47704 1.56303,-5.71937 1.56992,-15.974325 l 0.005,-7.10401 1.10458,-0.32737 c 0.60752,-0.18006 2.1666,-0.65577 3.46462,-1.05713 1.29801,-0.40136 2.41049,-0.67839 2.47216,-0.61563 0.0617,0.0628 0.11214,4.47571 0.11214,9.80655 0,5.77827 0.0829,9.914185 0.20515,10.241545 0.29094,0.77874 1.40452,1.40401 2.50217,1.40496 2.1267,0.002 3.46331,-2.810675 4.57846,-9.634195 0.32658,-1.99827 0.38057,-4.67385 0.48576,-24.070585 l 0.11835,-21.8224116 3.44958,-1.355115 c 1.89727,-0.745315 3.53048,-1.355115 3.62935,-1.355115 0.0989,0 0.1807,12.6941116 0.18183,28.2091416 l 0.002,28.20914 0.49394,1.07946 c 0.27167,0.59369 0.7303,1.23705 1.01917,1.42967 1.84774,1.23206 4.52489,0.25545 5.62199,-2.05087 0.42181,-0.88671 0.43509,-1.23669 0.43509,-11.466695 0,-12.03394 0.0395,-11.73068 -1.62452,-12.47974 -0.50514,-0.22739 -1.1747,-0.383 -1.48793,-0.34579 l -0.56955,0.0676 -0.0594,-2.397525 c -0.0668,-2.69626 -0.12909,-2.58321 1.66932,-3.02926 2.3387,-0.58005 3.99432,-0.69728 5.12478,-0.36284 1.5063,0.44562 2.83003,1.68657 3.59312,3.3684 l 0.61282,1.350665 0.054,7.06567 c 0.0297,3.88611 0.0533,7.37728 0.0526,7.75814 -0.002,0.93472 0.91786,1.96034 1.90016,2.11904 0.58821,0.095 1.51207,-0.17596 4.40474,-1.2921 2.01323,-0.7768 3.88427,-1.41236 4.15786,-1.41236 1.05901,0 1.71337,0.60013 2.59081,2.37608 1.05531,2.13596 1.66,2.50079 3.50047,2.11197 1.493116,-0.31544 2.275116,-0.657 3.386696,-1.47921 1.18803,-0.87878 1.72704,-1.81205 1.72803,-2.99202 5.9e-4,-0.83684 -0.10383,-1.04799 -0.90088,-1.81994 -0.49591,-0.4803 -2.12912,-1.7301 -3.629346,-2.77732 -3.54404,-2.4739 -6.49667,-4.72918 -7.41502,-5.66375 -1.20083,-1.22203 -1.80162,-2.8256 -1.89754,-5.064765 -0.0681,-1.58933 -0.004,-2.14091 0.36951,-3.14778 0.5244,-1.41612 1.89103,-3.056809 3.32188,-3.988045 0.81447,-0.530079 12.381486,-4.769504 14.465906,-5.301896 l 0.5254,-0.134198 v 1.612617 c 0,1.420062 0.0647,1.690813 0.54151,2.267511 0.29782,0.360195 0.90831,0.76674 1.35665,0.903439 0.73185,0.223131 0.92919,0.191443 1.93067,-0.310044 0.80241,-0.401799 1.28279,-0.830188 1.7115,-1.526251 2.48159,-4.029184 6.70559,-7.056596 12.29083,-8.809025 l 0.89419,-0.280565 v 1.899749 1.899749 l -0.61901,0.138356 c -1.09205,0.244088 -2.21646,1.256604 -2.72106,2.450276 -0.46299,1.095246 -0.46744,1.206733 -0.40501,10.142547 l 0.0631,9.035125 0.52599,1.05942 c 0.60689,1.22237 1.28122,1.79162 2.32691,1.96431 1.79681,0.29673 3.90161,-1.05528 4.38152,-2.81445 0.15779,-0.57835 0.23271,-5.0506 0.23351,-13.937705 l 0.001,-13.086097 1.22359,-0.349379 c 2.92231,-0.834431 4.47247,-0.08362 5.77958,2.799339 0.44332,0.977794 0.47038,1.368808 0.57086,8.249066 l 0.10547,7.222621 0.6497,0.66069 c 1.74399,1.773465 3.97021,0.91311 5.45249,-2.10718 0.97095,-1.978375 1.13009,-3.547517 1.30748,-12.891696 l 0.16454,-8.671501 3.47155,-1.2159756 c 1.90935,-0.668788 3.54256,-1.222805 3.62935,-1.231138 0.0868,-0.0083 0.1578,0.373328 0.1578,0.848159 0,1.8129586 0.91094,2.9389756 2.79173,3.4508906 2.00409,0.545477 3.53897,-0.530202 5.14528,-3.6059176 1.81034,-3.466398 3.89785,-4.662673 5.85692,-3.35638 1.19153,0.794501 1.14426,-0.424256 1.14426,29.5069386 v 27.49251 l 0.52966,0.64057 c 0.93025,1.12506 2.73593,1.08094 3.69361,-0.0902 0.16646,-0.20355 0.34715,-1.03099 0.40547,-1.85663 l 0.1052,-1.489425 1.05199,-0.40677 c 1.95495,-0.75591 1.78837,-0.85551 1.78837,1.06929 0,4.059735 -1.21865,6.488135 -4.09,8.150115 -1.50353,0.87026 -3.12823,1.29548 -5.11411,1.33846 -1.5243,0.033 -1.84828,-0.033 -2.93478,-0.59773 -0.96475,-0.50146 -1.35906,-0.86887 -1.87697,-1.74892 -0.3606,-0.61275 -0.71461,-1.47715 -0.78667,-1.92089 -0.0721,-0.44374 -0.13207,-11.003215 -0.13335,-23.465515 l -0.002,-22.658722 -0.64387,-0.655235 c -0.63862,-0.649894 -0.65831,-0.654324 -2.41329,-0.542904 -2.23603,0.141966 -3.41637,0.765155 -4.07613,2.152098 -0.42878,0.901387 -0.441,1.209173 -0.441,11.107658 v 10.180585 l -3.43414,1.20676 c -1.88878,0.66372 -3.49832,1.20676 -3.57676,1.20676 -0.0784,0 -0.14313,-0.31313 -0.14378,-0.69586 -0.003,-1.89171 -0.85187,-3.23453 -2.20789,-3.49341 -1.32148,-0.25229 -2.03911,0.26722 -3.18714,2.30724 -1.24385,2.21026 -3.32069,4.38267 -5.02099,5.25204 -1.1388,0.58226 -6.4104,2.29099 -9.7061,3.14612 -1.83234,0.47543 -3.8048,0.4313 -5.24582,-0.11737 -1.49928,-0.57086 -3.31057,-2.36662 -4.19073,-4.15482 l -0.63024,-1.28044 -0.10615,-5.67394 c -0.0584,-3.12067 -0.19125,-5.818475 -0.29525,-5.995115 -0.5626,-0.95553 -1.05813,-1.28467 -1.93411,-1.28467 -1.16625,0 -2.42155,0.56915 -3.97242,1.80107 -1.33412,1.05974 -1.9348,1.31587 -2.58984,1.1043 -0.22283,-0.072 -1.27643,-1.04861 -2.34132,-2.1703 -2.08496,-2.19616 -2.48939,-2.447954 -3.93186,-2.447954 -1.335916,0 -2.274626,0.471154 -3.017256,1.514424 -0.52219,0.73358 -0.64424,1.11606 -0.64424,2.01887 0,2.064935 1.13372,3.089195 6.627506,5.987625 5.51136,2.90771 6.75399,3.94777 7.6457,6.39935 1.21652,3.34458 0.49432,6.84147 -1.85269,8.97068 -1.53466,1.39223 -3.91045,2.36475 -11.275836,4.6157 -3.81183,1.164935 -7.14363,2.187075 -7.40399,2.271415 -0.44928,0.14553 -0.47339,0.097 -0.47339,-0.95281 0,-2.108435 -1.1154,-3.367525 -2.78172,-3.140075 -1.12775,0.15393 -3.25768,1.24181 -4.12886,2.10884 -0.38712,0.38528 -1.06541,1.426795 -1.50731,2.314495 -1.83814,3.69254 -5.21704,6.1395 -10.49251,7.59855 -0.99754,0.2759 -3.98429,1.18603 -6.63721,2.02251 -2.65291,0.83648 -4.93481,1.52087 -5.07088,1.52087 -0.16018,0 -0.29162,-0.63774 -0.37284,-1.80892 -0.18595,-2.68154 -0.83,-3.7383 -2.28614,-3.75117 -0.65052,-0.005 -0.8973,0.1392 -1.57798,0.92677 -0.44378,0.51347 -1.53661,2.18355 -2.42851,3.7113 -1.65803,2.84004 -3.03074,4.42544 -4.05917,4.68812 -0.30302,0.0774 -0.97857,0.0917 -1.50121,0.0317 -1.17603,-0.1349 -1.90958,-0.80084 -3.03572,-2.75594 -0.86858,-1.50795 -1.09621,-1.68421 -2.17503,-1.68421 -0.89912,0 -2.28701,1.20531 -2.97208,2.5811 -0.63647,1.27818 -1.51712,3.91686 -1.78249,5.34085 -0.47411,2.5441 -0.69061,7.23715 -0.81451,17.65558 l -0.13231,11.125012 -3.47155,1.12998 c -1.90935,0.62148 -3.54256,1.13126 -3.62935,1.13284 -0.0868,10e-4 -0.15832,-5.99492 -0.15897,-13.325552 z m 16.99023,-63.55234 c -0.92959,-0.49939 -1.75404,-1.69243 -1.95663,-2.83136 -0.40307,-2.26599 2.11882,-4.813697 4.26363,-4.307275 2.55427,0.603111 3.91497,3.208395 2.81803,5.395595 -0.99046,1.9749 -3.25796,2.746085 -5.12503,1.74304 z"
       id="path863" />
  </g>
</svg>
